<svg width="113" height="24" viewBox="0 0 113 24" fill="none" xmlns="http://www.w3.org/2000/svg">
<path d="M0 3.75H14.4C15.6601 3.75 16.2902 3.75 16.7715 3.99523C17.1948 4.21095 17.539 4.55515 17.7547 4.97852C18 5.4598 18 6.0899 18 7.35V8.25H3.6C2.33988 8.25 1.70983 8.25 1.22852 8.00475C0.805155 7.78905 0.46095 7.44485 0.245236 7.0215C0 6.5402 0 5.9101 0 4.65V3.75Z" fill="#181B25"/>
<path d="M0 3.75H14.4C15.6601 3.75 16.2902 3.75 16.7715 3.99523C17.1948 4.21095 17.539 4.55515 17.7547 4.97852C18 5.4598 18 6.0899 18 7.35V8.25H3.6C2.33988 8.25 1.70983 8.25 1.22852 8.00475C0.805155 7.78905 0.46095 7.44485 0.245236 7.0215C0 6.5402 0 5.9101 0 4.65V3.75Z" fill="url(#paint0_linear_7437_6636)"/>
<path d="M0 14.25H14.4C15.6601 14.25 16.2902 14.25 16.7715 14.0048C17.1948 13.7891 17.539 13.4448 17.7547 13.0215C18 12.5402 18 11.9101 18 10.65V9.75H3.6C2.33988 9.75 1.70983 9.75 1.22852 9.99525C0.805155 10.2109 0.46095 10.5552 0.245236 10.9785C0 11.4598 0 12.0899 0 13.35V14.25Z" fill="#181B25"/>
<path d="M0 14.25H14.4C15.6601 14.25 16.2902 14.25 16.7715 14.0048C17.1948 13.7891 17.539 13.4448 17.7547 13.0215C18 12.5402 18 11.9101 18 10.65V9.75H3.6C2.33988 9.75 1.70983 9.75 1.22852 9.99525C0.805155 10.2109 0.46095 10.5552 0.245236 10.9785C0 11.4598 0 12.0899 0 13.35V14.25Z" fill="url(#paint1_linear_7437_6636)"/>
<path d="M7 15.75H14.4C15.6601 15.75 16.2902 15.75 16.7715 15.9952C17.1948 16.2109 17.539 16.5552 17.7547 16.9785C18 17.4598 18 18.0899 18 19.35V20.25H10.6C9.3399 20.25 8.7098 20.25 8.2285 20.0047C7.80515 19.789 7.46095 19.4448 7.24525 19.0215C7 18.5402 7 17.9101 7 16.65V15.75Z" fill="#181B25"/>
<path d="M7 15.75H14.4C15.6601 15.75 16.2902 15.75 16.7715 15.9952C17.1948 16.2109 17.539 16.5552 17.7547 16.9785C18 17.4598 18 18.0899 18 19.35V20.25H10.6C9.3399 20.25 8.7098 20.25 8.2285 20.0047C7.80515 19.789 7.46095 19.4448 7.24525 19.0215C7 18.5402 7 17.9101 7 16.65V15.75Z" fill="url(#paint2_linear_7437_6636)"/>
<path d="M29.4347 19V4.45455H34.8892C36.0066 4.45455 36.9441 4.66288 37.7017 5.07955C38.464 5.49621 39.0393 6.06913 39.4276 6.7983C39.8205 7.52273 40.017 8.34659 40.017 9.26989C40.017 10.2027 39.8205 11.0312 39.4276 11.7557C39.0346 12.4801 38.4545 13.0507 37.6875 13.4673C36.9205 13.8793 35.9759 14.0852 34.8537 14.0852H31.2386V11.919H34.4986C35.152 11.919 35.687 11.8054 36.1037 11.5781C36.5204 11.3509 36.8281 11.0384 37.027 10.6406C37.2306 10.2429 37.3324 9.78598 37.3324 9.26989C37.3324 8.75379 37.2306 8.29924 37.027 7.90625C36.8281 7.51326 36.518 7.20786 36.0966 6.99006C35.6799 6.76752 35.1425 6.65625 34.4844 6.65625H32.0696V19H29.4347ZM42.1921 19V8.09091H44.7631V19H42.1921ZM43.4847 6.54261C43.0775 6.54261 42.7272 6.40767 42.4336 6.13778C42.14 5.86316 41.9933 5.53409 41.9933 5.15057C41.9933 4.76231 42.14 4.43324 42.4336 4.16335C42.7272 3.88873 43.0775 3.75142 43.4847 3.75142C43.8967 3.75142 44.247 3.88873 44.5359 4.16335C44.8294 4.43324 44.9762 4.76231 44.9762 5.15057C44.9762 5.53409 44.8294 5.86316 44.5359 6.13778C44.247 6.40767 43.8967 6.54261 43.4847 6.54261ZM47.407 23.0909V8.09091H49.9354V9.89489H50.0845C50.2171 9.62973 50.4041 9.34801 50.6456 9.04972C50.8871 8.74669 51.2138 8.48864 51.6257 8.27557C52.0376 8.05777 52.5632 7.94886 53.2024 7.94886C54.0452 7.94886 54.8052 8.1643 55.4822 8.59517C56.1641 9.02131 56.7038 9.65341 57.1016 10.4915C57.504 11.3248 57.7053 12.3475 57.7053 13.5597C57.7053 14.7576 57.5088 15.7756 57.1158 16.6136C56.7228 17.4517 56.1877 18.0909 55.5107 18.5312C54.8336 18.9716 54.0665 19.1918 53.2095 19.1918C52.5845 19.1918 52.0661 19.0876 51.6541 18.8793C51.2422 18.6709 50.9107 18.42 50.6598 18.1264C50.4136 17.8281 50.2218 17.5464 50.0845 17.2812H49.978V23.0909H47.407ZM49.9283 13.5455C49.9283 14.2509 50.0277 14.8688 50.2266 15.3991C50.4302 15.9295 50.7214 16.3437 51.1001 16.642C51.4837 16.9356 51.9477 17.0824 52.4922 17.0824C53.0604 17.0824 53.5362 16.9309 53.9197 16.6278C54.3033 16.3201 54.5921 15.901 54.7862 15.3707C54.9851 14.8357 55.0845 14.2273 55.0845 13.5455C55.0845 12.8684 54.9875 12.267 54.7933 11.7415C54.5992 11.2159 54.3104 10.804 53.9268 10.5057C53.5433 10.2074 53.0651 10.0582 52.4922 10.0582C51.9429 10.0582 51.4766 10.2027 51.093 10.4915C50.7095 10.7803 50.4183 11.1851 50.2195 11.706C50.0253 12.2268 49.9283 12.84 49.9283 13.5455ZM64.7365 19.2131C63.6428 19.2131 62.6982 18.9858 61.9027 18.5312C61.112 18.072 60.5036 17.4233 60.0774 16.5852C59.6513 15.7424 59.4382 14.7505 59.4382 13.6094C59.4382 12.4872 59.6513 11.5024 60.0774 10.6548C60.5083 9.80256 61.1096 9.13968 61.8814 8.66619C62.6532 8.18797 63.5599 7.94886 64.6016 7.94886C65.2739 7.94886 65.9084 8.05777 66.505 8.27557C67.1063 8.48864 67.6366 8.82008 68.0959 9.26989C68.5599 9.7197 68.9245 10.2926 69.1896 10.9886C69.4548 11.6799 69.5874 12.5038 69.5874 13.4602V14.2486H60.6456V12.5156H67.1229C67.1181 12.0232 67.0116 11.5852 66.8033 11.2017C66.5949 10.8134 66.3037 10.508 65.9297 10.2855C65.5604 10.063 65.1295 9.9517 64.6371 9.9517C64.1115 9.9517 63.6499 10.0795 63.2521 10.3352C62.8544 10.5862 62.5443 10.9176 62.3217 11.3295C62.1039 11.7367 61.9927 12.1842 61.9879 12.6719V14.1847C61.9879 14.8191 62.1039 15.3636 62.3359 15.8182C62.5679 16.268 62.8923 16.6136 63.3089 16.8551C63.7256 17.0919 64.2133 17.2102 64.772 17.2102C65.1461 17.2102 65.4846 17.1581 65.7876 17.054C66.0907 16.9451 66.3535 16.7865 66.576 16.5781C66.7985 16.3698 66.9666 16.1117 67.0803 15.804L69.4808 16.0739C69.3293 16.7083 69.0405 17.2623 68.6143 17.7358C68.1929 18.2045 67.6532 18.5691 66.995 18.8295C66.3369 19.0852 65.584 19.2131 64.7365 19.2131ZM74.3335 4.45455V19H71.7624V4.45455H74.3335ZM76.9773 19V8.09091H79.5483V19H76.9773ZM78.2699 6.54261C77.8627 6.54261 77.5123 6.40767 77.2188 6.13778C76.9252 5.86316 76.7784 5.53409 76.7784 5.15057C76.7784 4.76231 76.9252 4.43324 77.2188 4.16335C77.5123 3.88873 77.8627 3.75142 78.2699 3.75142C78.6818 3.75142 79.0322 3.88873 79.321 4.16335C79.6146 4.43324 79.7614 4.76231 79.7614 5.15057C79.7614 5.53409 79.6146 5.86316 79.321 6.13778C79.0322 6.40767 78.6818 6.54261 78.2699 6.54261ZM84.7631 12.608V19H82.1921V8.09091H84.6495V9.9446H84.7773C85.0283 9.33381 85.4284 8.84848 85.9776 8.48864C86.5316 8.12879 87.2158 7.94886 88.0302 7.94886C88.783 7.94886 89.4388 8.10985 89.9975 8.43182C90.561 8.75379 90.9966 9.22017 91.3043 9.83097C91.6168 10.4418 91.7707 11.1828 91.766 12.054V19H89.195V12.4517C89.195 11.7225 89.0056 11.152 88.6268 10.7401C88.2527 10.3281 87.7343 10.1222 87.0714 10.1222C86.6216 10.1222 86.2215 10.2216 85.8711 10.4205C85.5254 10.6146 85.2532 10.8963 85.0543 11.2656C84.8602 11.6349 84.7631 12.0824 84.7631 12.608ZM99.2092 19.2131C98.1154 19.2131 97.1708 18.9858 96.3754 18.5312C95.5846 18.072 94.9762 17.4233 94.5501 16.5852C94.1239 15.7424 93.9109 14.7505 93.9109 13.6094C93.9109 12.4872 94.1239 11.5024 94.5501 10.6548C94.9809 9.80256 95.5823 9.13968 96.354 8.66619C97.1258 8.18797 98.0326 7.94886 99.0742 7.94886C99.7466 7.94886 100.381 8.05777 100.978 8.27557C101.579 8.48864 102.109 8.82008 102.569 9.26989C103.033 9.7197 103.397 10.2926 103.662 10.9886C103.927 11.6799 104.06 12.5038 104.06 13.4602V14.2486H95.1183V12.5156H101.596C101.591 12.0232 101.484 11.5852 101.276 11.2017C101.068 10.8134 100.776 10.508 100.402 10.2855C100.033 10.063 99.6022 9.9517 99.1097 9.9517C98.5842 9.9517 98.1225 10.0795 97.7248 10.3352C97.3271 10.5862 97.0169 10.9176 96.7944 11.3295C96.5766 11.7367 96.4653 12.1842 96.4606 12.6719V14.1847C96.4606 14.8191 96.5766 15.3636 96.8086 15.8182C97.0406 16.268 97.3649 16.6136 97.7816 16.8551C98.1983 17.0919 98.686 17.2102 99.2447 17.2102C99.6187 17.2102 99.9573 17.1581 100.26 17.054C100.563 16.9451 100.826 16.7865 101.049 16.5781C101.271 16.3698 101.439 16.1117 101.553 15.804L103.953 16.0739C103.802 16.7083 103.513 17.2623 103.087 17.7358C102.666 18.2045 102.126 18.5691 101.468 18.8295C100.81 19.0852 100.057 19.2131 99.2092 19.2131ZM106.235 19V8.09091H108.728V9.90909H108.842C109.04 9.27936 109.381 8.79403 109.864 8.45312C110.352 8.10748 110.908 7.93466 111.533 7.93466C111.675 7.93466 111.834 7.94176 112.009 7.95597C112.189 7.96544 112.338 7.98201 112.457 8.00568V10.3707C112.348 10.3329 112.175 10.2997 111.938 10.2713C111.706 10.2382 111.481 10.2216 111.263 10.2216C110.795 10.2216 110.373 10.3234 109.999 10.527C109.63 10.7259 109.339 11.0028 109.126 11.358C108.913 11.7131 108.806 12.1226 108.806 12.5866V19H106.235Z" fill="#181B25"/>
<defs>
<linearGradient id="paint0_linear_7437_6636" x1="9" y1="3.75" x2="19.3297" y2="10.9461" gradientUnits="userSpaceOnUse">
<stop stop-color="#D9F8C0"/>
<stop offset="1" stop-color="#88CCF8"/>
</linearGradient>
<linearGradient id="paint1_linear_7437_6636" x1="9" y1="3.75" x2="19.3297" y2="10.9461" gradientUnits="userSpaceOnUse">
<stop stop-color="#D9F8C0"/>
<stop offset="1" stop-color="#88CCF8"/>
</linearGradient>
<linearGradient id="paint2_linear_7437_6636" x1="9" y1="3.75" x2="19.3297" y2="10.9461" gradientUnits="userSpaceOnUse">
<stop stop-color="#D9F8C0"/>
<stop offset="1" stop-color="#88CCF8"/>
</linearGradient>
</defs>
</svg>
